<svg width="32" height="32" viewBox="0 0 32 32" fill="none" xmlns="http://www.w3.org/2000/svg">
<path d="M15.6085 29.5582C11.6531 29.4862 7.8971 28.6053 4.40702 26.6996C4.11895 26.5445 4.00816 26.3506 4.00262 26.0238C3.9306 22.9159 5.34879 20.5781 7.77523 18.7888C9.76402 17.3207 12.0243 16.5396 14.4784 16.3125C17.5862 16.03 20.5113 16.6116 23.2036 18.2182C24.9542 19.2597 26.3391 20.6502 27.1812 22.5392C27.6964 23.6971 27.8681 24.9213 27.8238 26.1789C27.8183 26.4116 27.6908 26.5445 27.5025 26.6498C25.6245 27.6913 23.6302 28.4391 21.5361 28.9211C19.5861 29.3754 17.6084 29.5859 15.6085 29.5582ZM16.3121 28.6995C16.7553 28.6718 17.6029 28.633 18.4449 28.5499C21.3699 28.2619 24.1454 27.453 26.7491 26.0736C26.9153 25.985 26.9596 25.8853 26.9596 25.708C26.9485 24.1347 26.4832 22.711 25.5359 21.459C23.7133 19.0658 21.1982 17.8581 18.3064 17.3263C18.2178 17.3096 18.0793 17.3761 18.0128 17.4481C17.7469 17.7528 17.4865 18.0631 17.2428 18.3899C17.1763 18.4786 17.143 18.6281 17.1652 18.7334C17.4865 20.3399 17.8189 21.9409 18.1458 23.5475C18.251 24.0793 18.1291 24.5557 17.758 24.9546C17.5142 25.2205 17.2649 25.4753 17.0046 25.7246C16.3675 26.334 15.4534 26.334 14.8163 25.7302C14.5615 25.492 14.3233 25.2371 14.0795 24.9823C13.6917 24.5723 13.5643 24.0793 13.6751 23.5309C14.002 21.9354 14.3344 20.3399 14.6501 18.7445C14.6723 18.6392 14.6391 18.4896 14.5781 18.401C14.3399 18.0852 14.074 17.7916 13.8358 17.4758C13.7305 17.3429 13.6253 17.2986 13.4591 17.3263C11.3207 17.7196 9.35961 18.5118 7.69767 19.9466C5.96925 21.4423 4.91669 23.2871 4.86129 25.6249C4.85575 25.8631 4.91669 25.9961 5.14382 26.1179C8.51756 27.8741 12.124 28.6663 16.3121 28.6995ZM15.4589 19.1766C15.3814 19.5533 15.2983 19.9411 15.2207 20.3288C14.9936 21.4257 14.7665 22.5282 14.5393 23.625C14.4673 23.9574 14.5338 24.24 14.7942 24.4782C14.9936 24.6554 15.1709 24.8604 15.3592 25.0488C15.7138 25.4033 16.1126 25.3978 16.4727 25.0432C16.6555 24.8604 16.8273 24.6665 17.0156 24.4948C17.2982 24.2455 17.3536 23.9463 17.276 23.5918C17.0489 22.5282 16.8384 21.4645 16.6168 20.4009C16.5281 19.9798 16.4395 19.5644 16.3564 19.1766C16.0462 19.1766 15.7747 19.1766 15.4589 19.1766ZM14.7609 17.1047C14.7499 17.1379 14.7443 17.1712 14.7332 17.2099C15.0102 17.5368 15.2706 17.8803 15.5642 18.1905C15.7526 18.3899 16.0517 18.401 16.2401 18.2071C16.5447 17.8969 16.8107 17.5479 17.1375 17.1601C16.7054 17.1379 16.3453 17.1158 15.9908 17.1102C15.5808 17.0991 15.1709 17.1047 14.7609 17.1047Z" fill="#999999" stroke="#999999" stroke-width="0.2375" stroke-miterlimit="10"/>
<path d="M12.9934 13.565C12.7608 13.6758 12.517 13.7589 12.3065 13.8974C11.9797 14.1079 11.8356 14.1079 11.5586 13.8309C11.2373 13.5152 10.916 13.1939 10.6002 12.8726C10.3786 12.6454 10.362 12.4626 10.5559 12.2133C10.8939 11.7812 10.9216 11.3269 10.6944 10.8394C10.6224 10.6788 10.5615 10.5126 10.4839 10.3575C10.3177 10.0362 10.0518 9.84228 9.68617 9.78688C9.18205 9.71486 9.10449 9.62069 9.10449 9.10548C9.10449 8.70108 9.10449 8.29667 9.10449 7.88673C9.10449 7.53218 9.21529 7.39368 9.55876 7.34936C10.0629 7.28289 10.4063 7.01698 10.5836 6.54055C10.6279 6.41868 10.6778 6.30234 10.7277 6.18046C10.916 5.74282 10.8717 5.33841 10.5892 4.95617C10.3454 4.62378 10.362 4.47974 10.6446 4.19167C10.9492 3.88144 11.2539 3.57675 11.5642 3.27206C11.8135 3.02831 12.0018 3.00615 12.2677 3.21113C12.6721 3.52135 13.0987 3.57121 13.564 3.36624C13.7081 3.3053 13.8521 3.2499 13.9961 3.18343C14.395 3.00061 14.6277 2.69038 14.6886 2.25274C14.744 1.87049 14.8659 1.75969 15.2426 1.75415C15.6858 1.74862 16.129 1.74862 16.5666 1.75415C16.9378 1.75969 17.0707 1.87049 17.1151 2.23058C17.1705 2.69038 17.4087 3.01723 17.8352 3.19451C17.9903 3.26098 18.1399 3.31638 18.295 3.38286C18.7216 3.56013 19.1205 3.51581 19.4916 3.23882C19.8129 3.00061 19.9791 3.01723 20.2617 3.29976C20.5664 3.60445 20.8766 3.90914 21.1813 4.21937C21.4306 4.4742 21.4527 4.65148 21.2422 4.92293C20.9264 5.32733 20.8877 5.7539 21.0926 6.21924C21.1425 6.33004 21.1813 6.44083 21.2256 6.55163C21.4029 7.01698 21.7408 7.27735 22.2283 7.34936C22.5939 7.40476 22.6992 7.52664 22.6992 7.89781C22.6992 8.34099 22.6992 8.78418 22.6992 9.22736C22.6992 9.57637 22.5884 9.72594 22.2505 9.77026C21.7186 9.83674 21.3807 10.1303 21.2034 10.6234C21.1647 10.7286 21.1259 10.8284 21.0816 10.9281C20.8877 11.3713 20.932 11.7868 21.2311 12.1745C21.4583 12.4681 21.4417 12.6343 21.1757 12.9003C20.86 13.2216 20.5387 13.5429 20.2174 13.8586C19.9791 14.0913 19.8019 14.1135 19.536 13.9085C19.1205 13.5872 18.6884 13.5373 18.2175 13.7589C18.1011 13.8143 17.9793 13.8586 17.8629 13.9085C17.4253 14.0913 17.176 14.4126 17.1151 14.889C17.0707 15.2436 16.9267 15.371 16.5666 15.371C16.1234 15.3765 15.6802 15.3765 15.2426 15.371C14.8825 15.371 14.7329 15.2491 14.6886 14.8946C14.6277 14.4126 14.3729 14.0802 13.9186 13.903C13.6361 13.7866 13.3314 13.6869 12.9934 13.565ZM20.3669 12.4903C20.2949 12.2853 20.2174 12.1081 20.1675 11.9197C19.9902 11.2882 20.2174 10.7231 20.4666 10.1636C20.7104 9.61515 21.0982 9.22182 21.6688 9.01131C21.7353 8.98915 21.8294 8.91713 21.8294 8.86727C21.8461 8.64568 21.8738 8.41301 21.8128 8.21357C21.7796 8.11386 21.5469 8.08616 21.425 7.99752C21.1868 7.81471 20.8932 7.65405 20.7436 7.4103C20.4943 7.00036 20.2838 6.54609 20.1675 6.08075C20.0844 5.7539 20.1121 5.34949 20.234 5.03372C20.3669 4.69025 20.306 4.49082 20.0401 4.30247C20.0124 4.28031 19.9847 4.25261 19.9625 4.22491C19.8794 4.11411 19.7963 4.10303 19.6578 4.16397C18.6551 4.60716 17.1649 4.15289 16.5722 3.22774C16.5334 3.16681 16.478 3.10587 16.4669 3.03385C16.3949 2.62944 16.129 2.56851 15.7855 2.62391C15.7578 2.62945 15.7246 2.61283 15.7024 2.62391C15.6193 2.67376 15.4919 2.71808 15.4697 2.7901C15.1817 3.90914 13.1209 4.77335 12.1237 4.15843C12.0738 4.12519 11.963 4.13627 11.9132 4.17505C11.7304 4.31355 11.5642 4.46866 11.4035 4.60162C12.0628 5.70958 11.4423 7.08345 10.8551 7.67067C10.7166 7.80917 10.5448 7.95874 10.3565 8.0086C10.013 8.10832 9.941 8.30221 9.95762 8.62906C9.9687 8.86173 10.0241 8.96699 10.2402 9.07779C10.5282 9.22182 10.8385 9.41017 11.0213 9.66501C11.6251 10.5181 11.9797 11.4377 11.4201 12.5014C11.5697 12.6454 11.7137 12.8005 11.8799 12.928C11.9409 12.9723 12.0738 12.9944 12.1348 12.9612C13.1153 12.4128 14.7606 13.144 15.2038 13.842C15.2481 13.914 15.3202 13.9805 15.3312 14.0525C15.4033 14.5567 15.7689 14.5345 16.129 14.4902C16.2121 14.4791 16.3284 14.396 16.3506 14.324C16.6774 13.216 18.4612 12.4848 19.331 12.8559C19.8074 13.0609 20.029 12.8781 20.2838 12.5734C20.3171 12.5457 20.3392 12.5235 20.3669 12.4903Z" fill="#999999" stroke="#999999" stroke-width="0.2375" stroke-miterlimit="10"/>
<path d="M15.9242 11.2433C14.4396 11.2489 13.2319 10.0523 13.2263 8.56759C13.2208 7.094 14.4396 5.87524 15.9131 5.87524C17.3812 5.87524 18.5778 7.07184 18.6 8.54543C18.6166 10.019 17.4089 11.2378 15.9242 11.2433ZM15.9298 6.75053C14.916 6.74499 14.0961 7.55381 14.0905 8.56205C14.0905 9.55368 14.8938 10.368 15.891 10.3902C16.8826 10.4068 17.7247 9.57584 17.7302 8.57313C17.7357 7.57597 16.9214 6.75607 15.9298 6.75053Z" fill="#999999" stroke="#999999" stroke-width="0.2375" stroke-miterlimit="10"/>
</svg>
