<svg width="32" height="32" viewBox="0 0 32 32" fill="none" xmlns="http://www.w3.org/2000/svg">
<g id="Icon/24/Booking">
<g id="Group 1000001521">
<path id="Vector" d="M18.2879 29.4167H6.16667C4.69391 29.4167 3.5 28.2228 3.5 26.75V8.08335C3.5 6.61059 4.69391 5.41669 6.16667 5.41669H24.8333C26.3061 5.41669 27.5 6.61059 27.5 8.08335V18.2046" stroke="white" stroke-width="1.425" stroke-linecap="round" stroke-linejoin="round"/>
<path id="Vector_2" d="M20.8333 2.75V8.08333" stroke="white" stroke-width="1.425" stroke-linecap="round" stroke-linejoin="round"/>
<path id="Vector_3" d="M10.1667 2.75V8.08333" stroke="white" stroke-width="1.425" stroke-linecap="round" stroke-linejoin="round"/>
<path id="Vector_4" d="M3.5 13.4167H27.5" stroke="white" stroke-width="1.425" stroke-linecap="round" stroke-linejoin="round"/>
<g id="Group 115">
<path id="Vector_5" d="M23.5001 30.2091C26.8391 30.2091 29.5459 27.5023 29.5459 24.1632C29.5459 20.8242 26.8391 18.1174 23.5001 18.1174C20.1611 18.1174 17.4542 20.8242 17.4542 24.1632C17.4542 27.5023 20.1611 30.2091 23.5001 30.2091Z" stroke="white" stroke-width="1.425" stroke-linecap="round" stroke-linejoin="round"/>
<path id="Vector_6" d="M23.2334 22.2966V25.4966L25.3667 26.5633" stroke="white" stroke-width="1.425" stroke-linecap="round" stroke-linejoin="round"/>
</g>
</g>
</g>
</svg>
