<svg width="32" height="32" viewBox="0 0 32 32" fill="none" xmlns="http://www.w3.org/2000/svg">
<path d="M2 9.70589C2.05293 9.55466 2.09074 9.40344 2.15879 9.25977C2.53685 8.45072 3.172 8.04997 4.06423 8.04997C5.94698 8.04997 7.8373 8.04997 9.72005 8.04997C9.94689 8.04997 10.1662 8.04997 10.4308 8.04997C10.4308 7.92143 10.4308 7.82313 10.4308 7.72483C10.4308 6.16721 10.4308 4.60959 10.4308 3.05953C10.4308 2.61342 10.5442 2.5 10.9752 2.5C14.6424 2.5 18.3097 2.5 21.9844 2.5C22.4381 2.5 22.544 2.61342 22.544 3.07466C22.544 4.62472 22.544 6.16721 22.544 7.71727C22.544 7.81557 22.544 7.92143 22.544 8.04997C22.6801 8.04997 22.7935 8.04997 22.9069 8.04997C24.8653 8.04997 26.8312 8.08021 28.7896 8.04241C30.1657 8.01216 31.0504 9.0405 30.9823 10.2503C30.9445 10.9384 30.9748 11.6264 30.9748 12.3145C30.9748 12.6926 30.8387 12.8287 30.4682 12.8287C30.0825 12.8287 29.6969 12.8287 29.2962 12.8287C29.2962 17.2823 29.2962 21.7207 29.2962 26.2046C29.4172 26.2046 29.5306 26.2046 29.6516 26.2046C31.1487 26.2046 30.9748 26.0836 30.9823 27.5429C30.9823 28.0268 30.9823 28.5032 30.9823 28.9871C30.9823 29.3501 30.8538 29.4786 30.4909 29.4862C30.453 29.4862 30.4152 29.4862 30.3774 29.4862C21.1224 29.4862 11.875 29.4862 2.62002 29.4862C2.3705 29.4862 2.15123 29.471 2.00756 29.2291C2.00756 28.3066 2.00756 27.3766 2.00756 26.4541C2.14366 26.2575 2.32513 26.1894 2.55953 26.197C2.93004 26.2121 3.3081 26.197 3.68616 26.197C3.68616 21.7207 3.68616 17.2747 3.68616 12.8136C3.31566 12.8136 2.96028 12.7984 2.6049 12.8211C2.36294 12.8287 2.16635 12.7758 2.00756 12.5867C2 11.6264 2 10.6662 2 9.70589ZM11.9506 26.1894C11.9506 26.0382 11.9506 25.9324 11.9506 25.8189C11.9506 23.0364 11.9506 20.2539 11.9506 17.4713C11.9506 16.9723 12.0414 16.8815 12.548 16.8815C15.1717 16.8815 17.7955 16.8815 20.4117 16.8815C20.9334 16.8815 21.0166 16.9647 21.0166 17.4864C21.0166 20.269 21.0166 23.0515 21.0166 25.8341C21.0166 25.9475 21.0166 26.0533 21.0166 26.1819C23.5194 26.1819 25.9843 26.1819 28.4569 26.1819C28.4569 21.7207 28.4569 17.2823 28.4569 12.8363C20.4571 12.8363 12.4799 12.8363 4.50278 12.8363C4.50278 17.2974 4.50278 21.7434 4.50278 26.1894C6.998 26.1894 9.45541 26.1894 11.9506 26.1894ZM21.7349 3.30906C18.2265 3.30906 14.7332 3.30906 11.2474 3.30906C11.2474 6.2277 11.2474 9.12367 11.2474 12.0196C14.7559 12.0196 18.2416 12.0196 21.7349 12.0196C21.7349 9.11611 21.7349 6.22014 21.7349 3.30906ZM30.1733 27.0212C21.0317 27.0212 11.9204 27.0212 2.80906 27.0212C2.80906 27.5883 2.80906 28.1251 2.80906 28.6695C11.9431 28.6695 21.0544 28.6695 30.1733 28.6695C30.1733 28.1176 30.1733 27.5807 30.1733 27.0212ZM16.0791 26.1819C16.0791 23.3388 16.0791 20.5185 16.0791 17.6906C14.9676 17.6906 13.8636 17.6906 12.7748 17.6906C12.7748 20.5336 12.7748 23.3615 12.7748 26.1819C13.8863 26.1819 14.9751 26.1819 16.0791 26.1819ZM16.9033 17.683C16.9033 20.5336 16.9033 23.354 16.9033 26.1819C18.0148 26.1819 19.1111 26.1819 20.2151 26.1819C20.2151 23.3388 20.2151 20.5185 20.2151 17.683C19.1036 17.683 18.0072 17.683 16.9033 17.683ZM2.79393 12.0121C5.3572 12.0121 7.88267 12.0121 10.4157 12.0121C10.4157 10.9535 10.4157 9.91004 10.4157 8.83634C10.2871 8.83634 10.1813 8.83634 10.0679 8.83634C8.73709 8.83634 7.40631 8.83634 6.08308 8.83634C5.37989 8.83634 4.66913 8.82878 3.96593 8.8439C3.33078 8.85903 2.82418 9.32026 2.80906 9.93273C2.77881 10.6132 2.79393 11.3013 2.79393 12.0121ZM30.1582 12.0196C30.1733 11.9818 30.1808 11.9591 30.1808 11.944C30.1808 11.3694 30.1884 10.7947 30.1884 10.2201C30.1884 9.29758 29.7347 8.8439 28.8274 8.83634C26.8388 8.83634 24.8501 8.83634 22.8615 8.83634C22.7632 8.83634 22.6649 8.8439 22.5666 8.85146C22.5666 9.92516 22.5666 10.9686 22.5666 12.0196C25.0997 12.0196 27.6251 12.0196 30.1582 12.0196Z" fill="white" stroke="white" stroke-width="0.2375" stroke-miterlimit="10"/>
<path d="M10.7253 19.5962C10.7253 20.3448 10.7253 21.0858 10.7253 21.8344C10.7253 22.1973 10.5968 22.3334 10.2339 22.3334C8.82746 22.3334 7.42106 22.3334 6.02223 22.3334C5.64417 22.3334 5.51562 22.1973 5.51562 21.8192C5.51562 20.3372 5.51562 18.8552 5.51562 17.3808C5.51562 17.0178 5.64417 16.8893 6.00711 16.8893C7.42106 16.8893 8.83502 16.8893 10.249 16.8893C10.5968 16.8893 10.7253 17.0178 10.7253 17.3732C10.7253 18.1066 10.7253 18.8477 10.7253 19.5962ZM9.91628 21.5243C9.91628 20.2314 9.91628 18.9611 9.91628 17.6908C8.70648 17.6908 7.5118 17.6908 6.31712 17.6908C6.31712 18.9762 6.31712 20.2465 6.31712 21.5243C7.51936 21.5243 8.70648 21.5243 9.91628 21.5243Z" fill="white" stroke="white" stroke-width="0.2375" stroke-miterlimit="10"/>
<path d="M22.249 19.596C22.249 18.8625 22.249 18.1215 22.249 17.3881C22.249 16.9949 22.3624 16.8815 22.7556 16.8815C24.162 16.8815 25.5684 16.8815 26.9673 16.8815C27.3302 16.8815 27.4587 17.0176 27.4587 17.373C27.4587 18.855 27.4587 20.337 27.4587 21.8114C27.4587 22.1895 27.3226 22.3256 26.9521 22.3256C25.5457 22.3256 24.1393 22.3256 22.7405 22.3256C22.3851 22.3256 22.249 22.1895 22.249 21.8265C22.249 21.0855 22.249 20.337 22.249 19.596ZM23.0581 21.5165C24.283 21.5165 25.4701 21.5165 26.6572 21.5165C26.6572 20.2235 26.6572 18.9608 26.6572 17.6981C25.4474 17.6981 24.2528 17.6981 23.0581 17.6981C23.0581 18.9759 23.0581 20.2387 23.0581 21.5165Z" fill="white" stroke="white" stroke-width="0.2375" stroke-miterlimit="10"/>
<path d="M17.7873 8.96467C17.7873 9.55445 17.7873 10.0989 17.7873 10.6508C17.7873 11.0138 17.6587 11.1499 17.2958 11.1574C16.7589 11.165 16.2221 11.165 15.6852 11.1574C15.3147 11.1499 15.1862 11.0138 15.1862 10.6282C15.1862 10.0837 15.1862 9.53933 15.1862 8.97224C14.6191 8.97224 14.0898 8.97224 13.5529 8.97224C13.122 8.97224 12.9934 8.84369 12.9934 8.4127C12.9934 7.91366 12.9934 7.41462 12.9934 6.91557C12.9934 6.49214 13.122 6.37116 13.5529 6.37116C14.0822 6.37116 14.6115 6.37116 15.1711 6.37116C15.1786 6.27286 15.1862 6.18213 15.1862 6.09139C15.1862 5.59991 15.1786 5.10843 15.1862 4.61695C15.1862 4.32962 15.3374 4.17839 15.6172 4.17083C16.1918 4.16327 16.7665 4.16327 17.3411 4.17083C17.636 4.17839 17.7797 4.32962 17.7797 4.63963C17.7873 5.20673 17.7797 5.76626 17.7797 6.3636C18.3317 6.3636 18.8534 6.3636 19.3827 6.3636C19.8666 6.3636 19.98 6.46946 19.98 6.96094C19.98 7.45242 19.98 7.9439 19.98 8.43539C19.98 8.82857 19.8439 8.96467 19.4507 8.96467C18.9139 8.96467 18.3695 8.96467 17.7873 8.96467ZM15.9801 4.96477C15.9801 5.50161 15.9801 6.00822 15.9801 6.51482C15.9801 7.04411 15.8743 7.14241 15.3601 7.14241C14.8459 7.14241 14.3318 7.14241 13.8025 7.14241C13.8025 7.49779 13.8025 7.81536 13.8025 8.11781C13.8327 8.13294 13.8478 8.14806 13.863 8.14806C14.2713 8.15562 14.672 8.15562 15.0803 8.15562C15.9801 8.15562 15.9801 8.15562 15.9801 9.04029C15.9801 9.46372 15.9801 9.88715 15.9801 10.3257C16.3279 10.3257 16.6531 10.3257 17.0009 10.3257C17.0009 9.75861 17.0009 9.19907 17.0009 8.6471C17.0009 8.29172 17.137 8.15562 17.4999 8.15562C17.8175 8.15562 18.1426 8.15562 18.4602 8.15562C18.7022 8.15562 18.9366 8.15562 19.171 8.15562C19.171 7.78512 19.171 7.47511 19.171 7.13485C18.6266 7.13485 18.0973 7.13485 17.568 7.13485C17.1219 7.13485 17.0009 7.01387 16.9933 6.56775C16.9933 6.0309 16.9933 5.50161 16.9933 4.94964C16.6455 4.96476 16.3355 4.96477 15.9801 4.96477Z" fill="white" stroke="white" stroke-width="0.2375" stroke-miterlimit="10"/>
</svg>
