<svg width="32" height="32" viewBox="0 0 32 32" fill="none" xmlns="http://www.w3.org/2000/svg">
<g id="Icon/24/Doctor">
<g id="Group">
<g id="Group_2">
<path id="Vector" d="M9.93685 10.4452C9.92512 9.86442 9.88993 8.52696 9.8606 8.06941C9.8606 6.49732 10.2654 3.31207 13.2042 3.30034C14.1428 3.30034 13.8788 2.66681 15.6856 2.66681C21.2113 2.66681 21.6689 6.32721 21.6689 8.06941C21.6161 8.49763 21.6044 9.81749 21.5985 10.451" stroke="white" stroke-width="1.49333" stroke-miterlimit="10" stroke-linejoin="round"/>
<g id="Group_3">
<path id="Vector_2" d="M15.7613 17.8484C16.0664 17.8484 16.2423 17.8309 16.477 17.7957C16.5415 17.7839 16.5826 17.7781 16.5826 17.7781C17.1105 17.7018 17.5446 17.6314 17.9846 17.3029C18.2192 17.1269 18.4538 16.9275 18.6826 16.7104C19.3396 16.0945 19.9438 15.3671 20.2723 14.7453L20.7181 13.5369C20.7592 13.4196 20.8354 13.314 20.9293 13.226C21.774 12.4693 22.3254 10.7506 21.3868 10.3165C21.3868 10.3165 20.9997 10.5218 20.7005 10.0994C20.5363 9.87066 20.3427 9.5363 20.243 9.06702C20.2195 8.9673 20.1257 8.90277 20.0259 8.92037C16.4711 9.44831 13.7258 7.63571 12.8459 6.94939C12.7697 6.89073 12.6758 6.87313 12.582 6.89659C12.4881 6.92006 12.3942 6.97872 12.3766 7.07257C12.3004 7.49493 12.1948 7.89381 12.0599 8.26924C11.7431 9.16087 11.3618 9.77094 10.8104 10.3517C10.5112 10.6684 10.1182 10.3282 10.1182 10.3282C9.18553 10.7623 9.73693 12.481 10.5758 13.2378C10.6696 13.3199 10.74 13.4255 10.787 13.5487L11.2328 14.7571C11.5613 15.3789 12.1596 16.1062 12.8225 16.7222C13.0512 16.9333 13.2859 17.1387 13.5205 17.3146C13.9605 17.6431 14.3946 17.7135 14.9225 17.7898C14.9225 17.7898 14.9636 17.7957 15.0281 17.8074C15.2803 17.8309 15.4563 17.8484 15.7613 17.8484Z" stroke="white" stroke-width="1.49333" stroke-miterlimit="10" stroke-linejoin="round"/>
</g>
</g>
<path id="Vector_3" d="M18.7588 16.6516C18.8057 17.5139 18.8526 18.4525 19.011 19.1095L25.2525 21.4911C25.8625 21.7374 26.3377 22.2126 26.5489 22.7933C26.8832 23.726 27.3408 26.6121 27.5871 29.2049" stroke="white" stroke-width="1.49333" stroke-miterlimit="10" stroke-linejoin="round"/>
<path id="Vector_4" d="M12.5176 19.1093L14.7995 20.2649C15.4095 20.5758 16.1252 20.5758 16.7352 20.2649L19.0171 19.1093" stroke="white" stroke-width="1.49333" stroke-miterlimit="10" stroke-linejoin="round"/>
<path id="Vector_5" d="M4 29.2108C4.24637 26.6121 4.70392 23.7202 5.03829 22.7933C5.24946 22.2126 5.71288 21.7374 6.32294 21.4911L12.4764 19.1095C12.6348 18.4525 12.7286 17.5139 12.7756 16.6516" stroke="white" stroke-width="1.49333" stroke-miterlimit="10" stroke-linejoin="round"/>
<path id="Vector_6" d="M11.2854 23.8255C10.7399 22.5115 10.5698 21.1096 10.9511 19.7017" stroke="white" stroke-width="1.49333" stroke-miterlimit="10" stroke-linejoin="round"/>
<path id="Vector_7" d="M12.9575 24.7052C12.9575 25.2918 12.4765 25.767 11.8899 25.767C11.2974 25.767 10.8223 25.2918 10.8223 24.7052C10.8223 24.1186 11.3033 23.6435 11.8899 23.6435C12.4823 23.6376 12.9575 24.1186 12.9575 24.7052Z" stroke="white" stroke-width="1.49333" stroke-miterlimit="10" stroke-linejoin="round"/>
<path id="Vector_8" d="M20.636 19.7313C20.853 20.5702 20.8354 21.4325 20.7122 22.242" stroke="white" stroke-width="1.49333" stroke-miterlimit="10" stroke-linejoin="round"/>
<path id="Vector_9" d="M17.92 27.7323L17.7558 28.3775C17.1516 28.2485 16.6412 27.6736 16.8172 27.1046L18.0667 23.6554C18.4655 22.6288 19.41 21.9484 20.6536 22.2241C21.8972 22.4939 22.4192 23.4911 22.2785 24.5763L21.7329 28.1781C21.6156 28.7588 20.8823 29.0638 20.2781 28.9289L20.4424 28.2837" stroke="white" stroke-width="1.49333" stroke-miterlimit="10" stroke-linecap="round" stroke-linejoin="round"/>
</g>
</g>
</svg>
