<svg width="20" height="20" viewBox="0 0 20 20" fill="none" xmlns="http://www.w3.org/2000/svg">
<g id="fluent:home-20-regular">
<path id="Vector" d="M8.998 2.38799C9.27332 2.14063 9.63038 2.00378 10.0005 2.00378C10.3706 2.00378 10.7277 2.14063 11.003 2.38799L16.503 7.32999C16.6594 7.47062 16.7844 7.64256 16.8701 7.83465C16.9557 8.02673 17 8.23468 17 8.44499V15.5C17 15.8978 16.842 16.2793 16.5607 16.5607C16.2794 16.842 15.8978 17 15.5 17H13C12.6022 17 12.2206 16.842 11.9393 16.5607C11.658 16.2793 11.5 15.8978 11.5 15.5V12C11.5 11.8674 11.4473 11.7402 11.3536 11.6464C11.2598 11.5527 11.1326 11.5 11 11.5H9C8.86739 11.5 8.74021 11.5527 8.64645 11.6464C8.55268 11.7402 8.5 11.8674 8.5 12V15.5C8.5 15.8978 8.34196 16.2793 8.06066 16.5607C7.77936 16.842 7.39782 17 7 17H4.5C4.10218 17 3.72064 16.842 3.43934 16.5607C3.15804 16.2793 3 15.8978 3 15.5V8.44499C3 8.01999 3.18 7.61499 3.498 7.32999L8.998 2.38799ZM10.334 3.13199C10.2422 3.04963 10.1233 3.00407 10 3.00407C9.8767 3.00407 9.75775 3.04963 9.666 3.13199L4.166 8.07399C4.1139 8.12076 4.0722 8.17795 4.0436 8.24186C4.01501 8.30577 4.00015 8.37498 4 8.44499V15.5C4 15.6326 4.05268 15.7598 4.14645 15.8535C4.24021 15.9473 4.36739 16 4.5 16H7C7.13261 16 7.25979 15.9473 7.35355 15.8535C7.44732 15.7598 7.5 15.6326 7.5 15.5V12C7.5 11.6022 7.65804 11.2206 7.93934 10.9393C8.22064 10.658 8.60218 10.5 9 10.5H11C11.3978 10.5 11.7794 10.658 12.0607 10.9393C12.342 11.2206 12.5 11.6022 12.5 12V15.5C12.5 15.6326 12.5527 15.7598 12.6464 15.8535C12.7402 15.9473 12.8674 16 13 16H15.5C15.6326 16 15.7598 15.9473 15.8536 15.8535C15.9473 15.7598 16 15.6326 16 15.5V8.44499C15.9998 8.37498 15.985 8.30577 15.9564 8.24186C15.9278 8.17795 15.8861 8.12076 15.834 8.07399L10.334 3.13199Z" fill="#4C4C4C"/>
</g>
</svg>
