<svg width="32" height="32" viewBox="0 0 32 32" fill="none" xmlns="http://www.w3.org/2000/svg">
<path d="M16.0001 29.3327C23.3637 29.3327 29.3334 23.363 29.3334 15.9993C29.3334 8.63571 23.3637 2.66602 16.0001 2.66602M16.0001 29.3327C8.63644 29.3327 2.66675 23.363 2.66675 15.9993C2.66675 8.63571 8.63644 2.66602 16.0001 2.66602M16.0001 29.3327C19.6364 29.3327 20.8486 23.2721 20.8486 15.9993C20.8486 8.72662 19.6364 2.66602 16.0001 2.66602M16.0001 29.3327C12.3637 29.3327 11.1516 23.2721 11.1516 15.9993C11.1516 8.72662 12.3637 2.66602 16.0001 2.66602M3.87887 20.8478H28.1213M3.87887 11.1509H28.1213" stroke="white" stroke-width="1.6"/>
</svg>
