<svg width="32" height="32" viewBox="0 0 32 32" fill="none" xmlns="http://www.w3.org/2000/svg">
<path d="M11.9828 21.3982C10.9287 22.3698 9.53973 22.8961 8.10647 22.8669C6.67321 22.8378 5.30676 22.2554 4.29308 21.2417C3.27941 20.2281 2.69706 18.8616 2.6679 17.4283C2.63874 15.9951 3.16504 14.6061 4.13665 13.552L13.552 4.13665C14.6061 3.16504 15.9951 2.63874 17.4283 2.6679C18.8616 2.69706 20.2281 3.27941 21.2417 4.29308C22.2554 5.30676 22.8378 6.67321 22.8669 8.10647C22.8961 9.53973 22.3698 10.9287 21.3982 11.9828M8.84313 8.84313L13.9733 13.9733" stroke="white" stroke-width="1.8" stroke-linecap="round" stroke-linejoin="round"/>
<path d="M22.4243 19.7082V25.1402M19.7083 22.4242H25.1402M29.6668 20.6135C29.6709 22.7217 28.9553 24.7682 27.6383 26.4144C26.3213 28.0606 24.4819 29.208 22.4243 29.6668C20.3666 29.208 18.5272 28.0606 17.2102 26.4144C15.8932 24.7682 15.1776 22.7217 15.1817 20.6135V17.8976C15.1817 17.4173 15.3724 16.9568 15.712 16.6172C16.0515 16.2777 16.5121 16.0869 16.9923 16.0869H27.8562C28.3364 16.0869 28.797 16.2777 29.1365 16.6172C29.4761 16.9568 29.6668 17.4173 29.6668 17.8976V20.6135Z" stroke="white" stroke-width="1.8" stroke-linecap="round" stroke-linejoin="round"/>
</svg>
