<svg width="32" height="32" viewBox="0 0 32 32" fill="none" xmlns="http://www.w3.org/2000/svg">
<g id="Icon/24/Category">
<g id="Group">
<path id="Vector" d="M10.0783 7.06786C10.0783 6.50418 10.0366 5.98226 10.0783 5.46034C10.2662 3.47704 11.832 2.03653 13.8153 2.01566C15.5063 1.99478 17.1973 1.99478 18.9092 2.01566C21.0387 2.03653 22.6462 3.68581 22.6879 5.81525C22.6879 6.21191 22.6879 6.62945 22.6879 7.06786C22.8132 7.06786 22.9176 7.08874 23.022 7.08874C24.1284 7.08874 25.2558 7.08874 26.3623 7.08874C28.617 7.08874 30.2662 8.73801 30.2662 10.9927C30.2662 15.9614 30.2662 20.9301 30.2662 25.8988C30.2662 28.1535 28.617 29.8028 26.3623 29.8028C19.7025 29.8028 13.0637 29.8028 6.40397 29.8028C4.14927 29.8028 2.5 28.1535 2.5 25.8988C2.5 20.9301 2.5 15.9405 2.5 10.9718C2.5 8.73801 4.14927 7.10961 6.3831 7.08874C7.48957 7.08874 8.59605 7.08874 9.70252 7.08874C9.78603 7.06786 9.89041 7.06786 10.0783 7.06786ZM16.3414 28.5084C19.6817 28.5084 23.0011 28.5084 26.3414 28.5084C27.928 28.5084 28.9927 27.4646 28.9927 25.8779C28.9927 20.9092 28.9927 15.9197 28.9927 10.951C28.9927 9.38519 27.9072 8.32047 26.3414 8.32047C19.7025 8.32047 13.0637 8.32047 6.40397 8.32047C4.83821 8.32047 3.75261 9.38519 3.75261 10.951C3.75261 15.9197 3.75261 20.9092 3.75261 25.8779C3.75261 26.1702 3.79437 26.4625 3.87787 26.7547C4.2119 27.8612 5.17224 28.5084 6.40397 28.5084C9.70252 28.5084 13.0219 28.5084 16.3414 28.5084ZM21.3936 7.04698C21.3936 6.58769 21.4144 6.14928 21.3936 5.71086C21.3518 4.37474 20.308 3.31002 18.9719 3.28915C17.2182 3.26827 15.4854 3.26827 13.7318 3.28915C12.6462 3.31002 11.6858 3.99896 11.4353 5.0428C11.2892 5.66911 11.31 6.35805 11.2474 7.04698C14.6921 7.04698 18.0324 7.04698 21.3936 7.04698Z" fill="white" stroke="white" stroke-width="0.2375" stroke-miterlimit="10"/>
<path id="Vector_2" d="M13.8359 20.93C13.2305 20.93 12.6668 20.93 12.124 20.93C10.8297 20.93 10.0572 20.1576 10.0572 18.8632C10.0572 18.4248 10.0363 17.9864 10.0781 17.5689C10.1825 16.5876 10.9758 15.8987 11.957 15.8778C12.5624 15.8778 13.1679 15.8778 13.8359 15.8778C13.8359 15.6064 13.8359 15.3559 13.8359 15.1054C13.8359 14.6252 13.8151 14.1659 13.8777 13.6858C13.9821 12.7881 14.7545 12.12 15.6522 12.0991C16.0698 12.0782 16.4873 12.0991 16.884 12.0991C18.0739 12.0991 18.8673 12.8924 18.8673 14.0824C18.8673 14.667 18.8673 15.2515 18.8673 15.8778C19.4518 15.8778 19.9946 15.8778 20.5374 15.8778C21.8735 15.8778 22.646 16.6503 22.646 17.9864C22.646 18.4039 22.6669 18.8215 22.6251 19.2181C22.5207 20.2202 21.7691 20.8883 20.7671 20.9092C20.2451 20.93 19.7232 20.9092 19.2013 20.9092C19.0969 20.9092 19.0134 20.9092 18.8673 20.9092C18.8673 21.3267 18.8673 21.7025 18.8673 22.0783C18.8673 22.4123 18.8673 22.7463 18.8255 23.0804C18.7002 23.9781 17.9696 24.6461 17.051 24.6879C16.6334 24.7087 16.195 24.6879 15.7775 24.6879C14.5875 24.667 13.8151 23.8946 13.7942 22.6837C13.8359 22.1409 13.8359 21.5563 13.8359 20.93ZM17.6146 17.1513C17.6146 17.0052 17.6146 16.9008 17.6146 16.7964C17.6146 15.9196 17.6146 15.0428 17.6146 14.1659C17.6146 13.5814 17.4059 13.3726 16.8004 13.3726C16.4873 13.3726 16.1741 13.3726 15.861 13.3726C15.3391 13.3726 15.1094 13.6023 15.1094 14.1242C15.1094 15.0219 15.1094 15.9196 15.1094 16.8173C15.1094 16.9217 15.1094 17.0261 15.1094 17.1513C14.9633 17.1513 14.8589 17.1513 14.7545 17.1513C13.8568 17.1513 12.9591 17.1513 12.0614 17.1513C11.5604 17.1513 11.3307 17.381 11.3307 17.882C11.3307 18.2369 11.3307 18.6127 11.3307 18.9676C11.3307 19.4478 11.5812 19.6774 12.0405 19.6774C12.8547 19.6774 13.6689 19.6774 14.504 19.6774C14.6919 19.6774 14.9007 19.6774 15.1094 19.6774C15.1094 19.8236 15.1094 19.9279 15.1094 20.0323C15.1094 20.8883 15.1094 21.7442 15.1094 22.6002C15.1094 23.2682 15.2973 23.4561 15.9654 23.477C16.2577 23.477 16.5499 23.477 16.8422 23.477C17.385 23.477 17.6146 23.2682 17.6146 22.7046C17.6146 21.8069 17.6146 20.9092 17.6146 20.0115C17.6146 19.9071 17.6146 19.8027 17.6146 19.6774C17.7608 19.6774 17.886 19.6774 17.9904 19.6774C18.8881 19.6774 19.8067 19.6774 20.7044 19.6774C21.1428 19.6774 21.3934 19.4478 21.3934 19.0094C21.3934 18.5918 21.3934 18.1743 21.3934 17.7776C21.3934 17.4436 21.1846 17.2348 20.8506 17.1722C20.7253 17.1513 20.6209 17.1513 20.4957 17.1513C19.5562 17.1513 18.6167 17.1513 17.6146 17.1513Z" fill="white" stroke="white" stroke-width="0.2375" stroke-miterlimit="10"/>
</g>
</g>
</svg>
