<svg width="32" height="32" viewBox="0 0 32 32" fill="none" xmlns="http://www.w3.org/2000/svg">
<g id="Icon/24/News">
<g id="Group">
<path id="Vector" d="M30.8333 7.84845C30.8333 14.0593 30.8333 20.2702 30.8333 26.4728C30.8167 26.4977 30.8001 26.5227 30.7918 26.5476C30.4259 28.3519 29.1621 29.3912 27.3246 29.3912C19.8832 29.3912 12.4418 29.3912 5.00869 29.3912C4.70937 29.3912 4.39342 29.3745 4.10242 29.308C2.52268 28.9505 1.5 27.6285 1.5 25.9573C1.5 18.9981 1.5 12.0306 1.5 5.07143C1.5 4.00718 2.00718 3.5 3.07974 3.5C10.7041 3.5 18.3201 3.5 25.9444 3.5C26.0359 3.5 26.1357 3.5 26.2271 3.5C26.9754 3.54989 27.5076 4.09033 27.5159 4.84694C27.5242 5.41232 27.5159 5.9777 27.5159 6.53477C27.5159 6.62623 27.5159 6.71769 27.5159 6.81746C28.1893 6.81746 28.8212 6.81746 29.4531 6.81746C29.9686 6.81746 30.376 7.03364 30.6504 7.4743C30.7086 7.59902 30.7668 7.72373 30.8333 7.84845ZM27.5076 8.1644C27.5076 8.27249 27.5076 8.34732 27.5076 8.42215C27.5076 13.918 27.5076 19.4055 27.5076 24.9014C27.5076 25.3005 27.5491 25.342 27.9732 25.4418C28.3141 25.5249 28.5136 25.791 28.4887 26.1319C28.4637 26.4562 28.2309 26.6973 27.8983 26.7222C27.7404 26.7305 27.5741 26.7222 27.4161 26.6806C26.6179 26.4645 26.1772 25.8326 26.1772 24.9097C26.1772 18.3496 26.1772 11.7895 26.1772 5.22109C26.1772 5.09637 26.1772 4.97997 26.1772 4.84694C18.37 4.84694 10.6043 4.84694 2.81368 4.84694C2.80537 4.95503 2.79705 5.04649 2.79705 5.13794C2.79705 12.0639 2.79705 18.9898 2.79705 25.9157C2.79705 27.2294 3.63681 28.0775 4.94218 28.0775C12.4085 28.0775 19.8832 28.0775 27.3496 28.0775C28.655 28.0775 29.4947 27.2294 29.4947 25.9157C29.4947 20.0956 29.4947 14.2838 29.4947 8.46372C29.4947 8.36395 29.4864 8.26417 29.4781 8.1644C28.8212 8.1644 28.181 8.1644 27.5076 8.1644Z" fill="white" stroke="white" stroke-width="0.11875" stroke-miterlimit="10"/>
<path id="Vector_2" d="M9.49024 12.1387C10.5379 12.1387 11.5938 12.1387 12.6414 12.1387C13.265 12.1387 13.5061 12.3799 13.5061 13.0034C13.5061 15.107 13.5061 17.2022 13.5061 19.3058C13.5061 19.9211 13.2567 20.1705 12.6331 20.1705C10.5295 20.1705 8.43431 20.1705 6.33075 20.1705C5.7238 20.1705 5.47437 19.9294 5.47437 19.3224C5.47437 17.2022 5.47437 15.0821 5.47437 12.9619C5.47437 12.3632 5.71548 12.1304 6.31412 12.1304C7.37006 12.1387 8.42599 12.1387 9.49024 12.1387ZM6.81299 13.4857C6.81299 15.2816 6.81299 17.0443 6.81299 18.8236C8.60059 18.8236 10.3716 18.8236 12.1509 18.8236C12.1509 17.0359 12.1509 15.265 12.1509 13.4857C10.3633 13.4857 8.60059 13.4857 6.81299 13.4857Z" fill="white" stroke="white" stroke-width="0.11875" stroke-miterlimit="10"/>
<path id="Vector_3" d="M14.504 7.49091C17.1978 7.49091 19.8917 7.49091 22.5856 7.49091C22.7186 7.49091 22.8517 7.49091 22.9847 7.50753C23.2923 7.55742 23.5085 7.80685 23.5251 8.1228C23.5418 8.43044 23.3422 8.6965 23.0346 8.77133C22.9099 8.80459 22.7685 8.8129 22.6355 8.8129C17.2145 8.8129 11.7851 8.8129 6.36413 8.8129C5.82369 8.8129 5.541 8.61335 5.49111 8.23089C5.44954 7.85674 5.68234 7.54911 6.05649 7.50753C6.18121 7.49091 6.30593 7.49091 6.43064 7.49091C9.11621 7.49091 11.8101 7.49091 14.504 7.49091Z" fill="white" stroke="white" stroke-width="0.11875" stroke-miterlimit="10"/>
<path id="Vector_4" d="M19.5007 17.3686C18.4281 17.3686 17.3639 17.3769 16.2913 17.3686C15.7426 17.3686 15.4349 17.0444 15.5181 16.5871C15.568 16.3127 15.7343 16.1464 15.992 16.0799C16.1167 16.0466 16.2581 16.0466 16.3911 16.0466C18.4614 16.0466 20.5317 16.0466 22.6103 16.0466C22.6602 16.0466 22.7018 16.0466 22.7517 16.0466C23.2339 16.0633 23.5166 16.321 23.5166 16.7201C23.5083 17.1192 23.2256 17.3769 22.7433 17.3769C21.6625 17.3769 20.5816 17.3686 19.5007 17.3686Z" fill="white" stroke="white" stroke-width="0.11875" stroke-miterlimit="10"/>
<path id="Vector_5" d="M19.5091 12.388C20.5816 12.388 21.6459 12.388 22.7184 12.388C23.2007 12.388 23.475 12.6042 23.5083 12.995C23.5332 13.3192 23.342 13.6019 23.0261 13.6767C22.9097 13.7017 22.7849 13.7183 22.6602 13.7183C20.5567 13.7183 18.4614 13.7266 16.3579 13.71C16.1583 13.71 15.9422 13.6518 15.7676 13.552C15.5181 13.4107 15.4599 13.1446 15.5264 12.8786C15.593 12.6291 15.7592 12.4628 16.017 12.4129C16.15 12.388 16.2831 12.388 16.4161 12.388C17.4471 12.388 18.4781 12.388 19.5091 12.388Z" fill="white" stroke="white" stroke-width="0.11875" stroke-miterlimit="10"/>
<path id="Vector_6" d="M19.5007 21.8416C18.4282 21.8416 17.3639 21.8499 16.2914 21.8416C15.7343 21.8416 15.4267 21.5007 15.5264 21.0268C15.593 20.7108 15.8507 20.5196 16.2581 20.5113C16.5574 20.5029 16.8484 20.5113 17.1478 20.5113C18.9686 20.5113 20.7978 20.5113 22.6187 20.5113C23.209 20.5113 23.5332 20.7524 23.5249 21.193C23.5166 21.6254 23.209 21.8499 22.627 21.8499C21.5794 21.8416 20.54 21.8416 19.5007 21.8416Z" fill="white" stroke="white" stroke-width="0.11875" stroke-miterlimit="10"/>
<path id="Vector_7" d="M9.48198 23.4214C8.40941 23.4214 7.34516 23.4214 6.2726 23.4214C5.79868 23.4214 5.5243 23.2136 5.48273 22.8394C5.44116 22.4819 5.64071 22.2075 5.98991 22.1244C6.098 22.0994 6.2144 22.0911 6.3308 22.0911C8.43436 22.0911 10.5296 22.0911 12.6331 22.0911C13.1071 22.0911 13.3814 22.2574 13.4563 22.59C13.5561 22.9891 13.3232 23.3549 12.9075 23.3965C12.5833 23.4297 12.259 23.4214 11.9347 23.4214C11.1282 23.4214 10.3051 23.4214 9.48198 23.4214Z" fill="white" stroke="white" stroke-width="0.11875" stroke-miterlimit="10"/>
</g>
</g>
</svg>
