<svg width="32" height="32" viewBox="0 0 32 32" fill="none" xmlns="http://www.w3.org/2000/svg">
<path d="M11.9827 21.3979C10.9286 22.3695 9.53964 22.8958 8.10638 22.8667C6.67312 22.8375 5.30667 22.2552 4.29299 21.2415C3.27932 20.2278 2.69696 18.8614 2.66781 17.4281C2.63865 15.9948 3.16494 14.6058 4.13656 13.5518L13.5519 4.1364C14.606 3.16479 15.995 2.6385 17.4283 2.66765C18.8615 2.69681 20.228 3.27916 21.2416 4.29284C22.2553 5.30652 22.8377 6.67296 22.8668 8.10622C22.896 9.53949 22.3697 10.9285 21.3981 11.9826M8.84304 8.84289L13.9732 13.9731" stroke="white" stroke-width="1.6" stroke-linecap="round" stroke-linejoin="round"/>
<path d="M22.4242 19.7082V25.1402M19.7082 22.4242H25.1401M29.6668 20.6135C29.6708 22.7217 28.9552 24.7682 27.6382 26.4144C26.3212 28.0606 24.4818 29.208 22.4242 29.6668C20.3665 29.208 18.5271 28.0606 17.2101 26.4144C15.8931 24.7682 15.1775 22.7217 15.1816 20.6135V17.8976C15.1816 17.4173 15.3723 16.9568 15.7119 16.6172C16.0515 16.2777 16.512 16.0869 16.9922 16.0869H27.8561C28.3363 16.0869 28.7969 16.2777 29.1364 16.6172C29.476 16.9568 29.6668 17.4173 29.6668 17.8976V20.6135Z" stroke="white" stroke-width="1.6" stroke-linecap="round" stroke-linejoin="round"/>
</svg>
