<svg width="32" height="32" viewBox="0 0 32 32" fill="none" xmlns="http://www.w3.org/2000/svg">
<path d="M7.08282 14.348C10.9735 7.44933 12.9188 4 16.0002 4C19.0802 4 21.0268 7.44933 24.9175 14.348L25.4028 15.208C28.6362 20.9413 30.2535 23.808 28.7922 25.904C27.3308 28 23.7148 28 16.4855 28H15.5148C8.28549 28 4.66949 28 3.20816 25.904C1.74682 23.808 3.36416 20.9413 6.59749 15.208L7.08282 14.348Z" stroke="white" stroke-width="1.66154"/>
<path d="M16 10.668V17.3346" stroke="white" stroke-width="2.07692" stroke-linecap="round"/>
<path d="M16.0001 22.6667C16.7365 22.6667 17.3334 22.0697 17.3334 21.3333C17.3334 20.597 16.7365 20 16.0001 20C15.2637 20 14.6667 20.597 14.6667 21.3333C14.6667 22.0697 15.2637 22.6667 16.0001 22.6667Z" fill="white"/>
</svg>
