<svg width="32" height="32" viewBox="0 0 32 32" fill="none" xmlns="http://www.w3.org/2000/svg">
<path d="M16 10.8576C15.3246 10.8576 14.6559 10.9906 14.0319 11.249C13.408 11.5075 12.841 11.8863 12.3635 12.3639C11.8859 12.8414 11.5071 13.4084 11.2486 14.0323C10.9902 14.6563 10.8571 15.325 10.8571 16.0004C10.8571 16.6758 10.9902 17.3445 11.2486 17.9685C11.5071 18.5925 11.8859 19.1594 12.3635 19.637C12.841 20.1145 13.408 20.4933 14.0319 20.7518C14.6559 21.0103 15.3246 21.1433 16 21.1433C17.364 21.1433 18.6721 20.6014 19.6366 19.637C20.601 18.6725 21.1429 17.3644 21.1429 16.0004C21.1429 14.6364 20.601 13.3283 19.6366 12.3639C18.6721 11.3994 17.364 10.8576 16 10.8576ZM12.5714 16.0004C12.5714 15.5502 12.6601 15.1043 12.8324 14.6884C13.0047 14.2724 13.2573 13.8944 13.5756 13.5761C13.894 13.2577 14.272 13.0051 14.6879 12.8328C15.1039 12.6605 15.5498 12.5718 16 12.5718C16.4503 12.5718 16.8961 12.6605 17.3121 12.8328C17.728 13.0051 18.106 13.2577 18.4244 13.5761C18.7427 13.8944 18.9953 14.2724 19.1676 14.6884C19.3399 15.1043 19.4286 15.5502 19.4286 16.0004C19.4286 16.9097 19.0674 17.7818 18.4244 18.4248C17.7814 19.0678 16.9093 19.429 16 19.429C15.0907 19.429 14.2186 19.0678 13.5756 18.4248C12.9327 17.7818 12.5714 16.9097 12.5714 16.0004ZM24.8114 25.5947L22.8366 24.7273C22.5555 24.6052 22.2498 24.5504 21.9438 24.5675C21.6378 24.5846 21.34 24.6729 21.0743 24.8256C20.5406 25.1341 20.2 25.6793 20.1326 26.293L19.8949 28.4416C19.8709 28.6575 19.7809 28.8607 19.6371 29.0235C19.4933 29.1864 19.3027 29.3008 19.0914 29.3513C17.0582 29.8359 14.9395 29.8359 12.9063 29.3513C12.6952 29.3006 12.5049 29.1861 12.3613 29.0233C12.2177 28.8605 12.1279 28.6573 12.104 28.4416L11.8663 26.2964C11.8322 25.9945 11.7277 25.7048 11.5614 25.4506C11.3951 25.1964 11.1715 24.9846 10.9086 24.8324C10.6459 24.6805 10.3512 24.5925 10.0483 24.5754C9.74535 24.5583 9.44264 24.6127 9.16458 24.7341L7.18972 25.6016C6.99008 25.6893 6.76812 25.7127 6.55455 25.6687C6.34099 25.6247 6.1464 25.5154 5.99772 25.3558C4.57631 23.8326 3.51858 22.0071 2.904 20.0164C2.83938 19.8072 2.84141 19.583 2.90979 19.375C2.97818 19.167 3.10955 18.9854 3.28572 18.8553L5.03086 17.5661C5.27654 17.3856 5.4763 17.1499 5.61398 16.8779C5.75166 16.6059 5.8234 16.3053 5.8234 16.0004C5.8234 15.6956 5.75166 15.395 5.61398 15.123C5.4763 14.851 5.27654 14.6152 5.03086 14.4347L3.28572 13.149C3.10933 13.0188 2.97781 12.837 2.90941 12.6288C2.84101 12.4205 2.83912 12.1961 2.904 11.9867C3.51985 9.99776 4.57835 8.1742 6 6.65299C6.14882 6.49368 6.34347 6.38456 6.55703 6.34075C6.77059 6.29693 6.99248 6.32058 7.192 6.40842L9.15772 7.27356C9.43741 7.39394 9.74141 7.44717 10.0454 7.429C10.3493 7.41083 10.6448 7.32176 10.9082 7.16892C11.1715 7.01608 11.3955 6.80371 11.562 6.54881C11.7286 6.29391 11.8332 6.00356 11.8674 5.70099L12.1074 3.5547C12.1316 3.33636 12.2233 3.13101 12.3698 2.96731C12.5163 2.80361 12.7102 2.68973 12.9246 2.64156C13.9314 2.41756 14.9589 2.2987 16.0149 2.28613C17.0457 2.29756 18.072 2.41756 19.0777 2.64156C19.2923 2.68964 19.4864 2.80364 19.633 2.9676C19.7795 3.13155 19.8711 3.33724 19.8949 3.55585L20.1337 5.70213C20.1852 6.17811 20.4106 6.61834 20.7665 6.93847C21.1225 7.2586 21.5841 7.43611 22.0629 7.43699C22.3291 7.43699 22.5931 7.38099 22.84 7.27242L24.8057 6.40728C25.0052 6.31944 25.2271 6.29579 25.4407 6.33961C25.6542 6.38342 25.8489 6.49254 25.9977 6.65185C27.419 8.17312 28.4771 9.99669 29.0926 11.9856C29.1573 12.1947 29.1555 12.4187 29.0873 12.6268C29.0191 12.8348 28.888 13.0165 28.712 13.1467L26.9691 14.4347C26.472 14.8004 26.1714 15.3821 26.1714 16.0004C26.1714 16.6176 26.472 17.1993 26.9703 17.5661L28.7143 18.853C29.0754 19.1204 29.2286 19.5867 29.096 20.0153C28.4806 22.0039 27.4229 23.8274 26.0023 25.349C25.8536 25.5085 25.659 25.6178 25.4455 25.6618C25.2319 25.7059 25.0111 25.6824 24.8114 25.5947ZM18.5863 25.3684C18.859 24.5144 19.4394 23.7922 20.2149 23.3421C20.7137 23.0547 21.273 22.8883 21.8478 22.8564C22.4227 22.8244 22.997 22.9278 23.5246 23.1581L25.0606 23.8324C26.0472 22.6901 26.8109 21.3728 27.312 19.949L25.9531 18.9467C25.4905 18.607 25.1141 18.1623 24.8543 17.6506C24.5944 17.1388 24.4584 16.5732 24.4571 15.9993C24.4571 14.8256 25.0251 13.7364 25.9509 13.0553L25.9531 13.0541L27.3097 12.0518C26.8082 10.6283 26.0442 9.31142 25.0571 8.16956L23.5337 8.83928L23.5314 8.84042C23.0674 9.04613 22.568 9.15128 22.0617 9.15128C21.1614 9.14992 20.2931 8.81671 19.6231 8.21537C18.953 7.61404 18.5281 6.78679 18.4297 5.89185V5.88956L18.2434 4.22099C17.5082 4.08406 16.7626 4.01027 16.0149 4.00042C15.2576 4.00994 14.5025 4.08373 13.7577 4.22099L13.5714 5.8907C13.5074 6.46049 13.3105 7.0073 12.9967 7.48718C12.6829 7.96705 12.2609 8.36661 11.7645 8.65372C11.2682 8.94084 10.7115 9.10751 10.139 9.14033C9.56661 9.17315 8.99445 9.07121 8.46858 8.8427L6.94172 8.1707C5.95466 9.31253 5.19059 10.6294 4.68915 12.053L6.04915 13.0553C6.51081 13.3953 6.8861 13.839 7.14474 14.3507C7.40339 14.8623 7.53814 15.4277 7.53814 16.001C7.53814 16.5743 7.40339 17.1396 7.14474 17.6513C6.8861 18.163 6.51081 18.6067 6.04915 18.9467L4.68915 19.9501C5.18964 21.376 5.95334 22.6952 6.94058 23.8393L8.47772 23.165C9.00193 22.9355 9.57274 22.8325 10.1441 22.8643C10.7154 22.8961 11.2713 23.0617 11.7669 23.3478C12.2622 23.634 12.6835 24.0324 12.9969 24.5109C13.3103 24.9895 13.5071 25.5349 13.5714 26.1033V26.109L13.7566 27.7821C15.2389 28.0736 16.7623 28.0736 18.2446 27.7821L18.4297 26.1056C18.4571 25.8541 18.5086 25.6061 18.5863 25.3684Z" fill="white"/>
</svg>
