<svg width="32" height="32" viewBox="0 0 32 32" fill="none" xmlns="http://www.w3.org/2000/svg">
<path d="M15.9998 10.8571C15.3244 10.8571 14.6556 10.9901 14.0317 11.2485C13.4077 11.507 12.8408 11.8858 12.3632 12.3634C11.8857 12.8409 11.5068 13.4079 11.2484 14.0318C10.9899 14.6558 10.8569 15.3246 10.8569 15.9999C10.8569 16.6753 10.9899 17.3441 11.2484 17.968C11.5068 18.592 11.8857 19.1589 12.3632 19.6365C12.8408 20.114 13.4077 20.4929 14.0317 20.7513C14.6556 21.0098 15.3244 21.1428 15.9998 21.1428C17.3637 21.1428 18.6718 20.601 19.6363 19.6365C20.6008 18.672 21.1426 17.3639 21.1426 15.9999C21.1426 14.636 20.6008 13.3279 19.6363 12.3634C18.6718 11.3989 17.3637 10.8571 15.9998 10.8571ZM12.5712 15.9999C12.5712 15.5497 12.6599 15.1038 12.8322 14.6879C13.0045 14.2719 13.257 13.8939 13.5754 13.5756C13.8938 13.2572 14.2717 13.0046 14.6877 12.8323C15.1037 12.66 15.5495 12.5714 15.9998 12.5714C16.45 12.5714 16.8958 12.66 17.3118 12.8323C17.7278 13.0046 18.1058 13.2572 18.4241 13.5756C18.7425 13.8939 18.995 14.2719 19.1673 14.6879C19.3396 15.1038 19.4283 15.5497 19.4283 15.9999C19.4283 16.9092 19.0671 17.7813 18.4241 18.4243C17.7811 19.0673 16.9091 19.4285 15.9998 19.4285C15.0904 19.4285 14.2184 19.0673 13.5754 18.4243C12.9324 17.7813 12.5712 16.9092 12.5712 15.9999ZM24.8112 25.5942L22.8363 24.7268C22.5553 24.6047 22.2495 24.55 21.9435 24.567C21.6376 24.5841 21.3398 24.6725 21.074 24.8251C20.5403 25.1336 20.1998 25.6788 20.1323 26.2925L19.8946 28.4411C19.8707 28.657 19.7806 28.8602 19.6368 29.0231C19.493 29.1859 19.3025 29.3003 19.0912 29.3508C17.058 29.8355 14.9393 29.8355 12.906 29.3508C12.695 29.3001 12.5047 29.1856 12.3611 29.0228C12.2175 28.86 12.1276 28.6568 12.1038 28.4411L11.866 26.2959C11.8319 25.994 11.7275 25.7044 11.5612 25.4501C11.3949 25.1959 11.1713 24.9841 10.9083 24.8319C10.6457 24.68 10.351 24.592 10.048 24.5749C9.74511 24.5578 9.4424 24.6122 9.16433 24.7336L7.18947 25.6011C6.98984 25.6888 6.76787 25.7122 6.55431 25.6682C6.34075 25.6242 6.14615 25.5149 5.99747 25.3554C4.57606 23.8322 3.51834 22.0066 2.90376 20.0159C2.83914 19.8067 2.84116 19.5826 2.90955 19.3745C2.97794 19.1665 3.10931 18.9849 3.28547 18.8548L5.03062 17.5656C5.2763 17.3851 5.47605 17.1494 5.61373 16.8774C5.75142 16.6054 5.82316 16.3048 5.82316 15.9999C5.82316 15.6951 5.75142 15.3945 5.61373 15.1225C5.47605 14.8505 5.2763 14.6147 5.03062 14.4342L3.28547 13.1485C3.10908 13.0184 2.97756 12.8365 2.90917 12.6283C2.84077 12.42 2.83888 12.1956 2.90376 11.9862C3.51961 9.99727 4.57811 8.17371 5.99976 6.6525C6.14858 6.49319 6.34323 6.38408 6.55679 6.34026C6.77034 6.29644 6.99224 6.32009 7.19176 6.40793L9.15747 7.27307C9.43717 7.39345 9.74116 7.44668 10.0451 7.42851C10.3491 7.41034 10.6446 7.32127 10.9079 7.16843C11.1713 7.01559 11.3952 6.80322 11.5618 6.54832C11.7284 6.29342 11.8329 6.00307 11.8672 5.7005L12.1072 3.55422C12.1314 3.33587 12.2231 3.13053 12.3696 2.96683C12.5161 2.80313 12.71 2.68924 12.9243 2.64107C13.9312 2.41707 14.9586 2.29822 16.0146 2.28564C17.0455 2.29707 18.0718 2.41707 19.0775 2.64107C19.292 2.68915 19.4862 2.80316 19.6327 2.96711C19.7793 3.13107 19.8708 3.33675 19.8946 3.55536L20.1335 5.70164C20.185 6.17762 20.4103 6.61785 20.7663 6.93798C21.1223 7.25811 21.5839 7.43562 22.0626 7.4365C22.3289 7.4365 22.5929 7.3805 22.8398 7.27193L24.8055 6.40679C25.005 6.31895 25.2269 6.2953 25.4405 6.33912C25.654 6.38293 25.8487 6.49205 25.9975 6.65136C27.4188 8.17264 28.4769 9.9962 29.0923 11.9851C29.1571 12.1942 29.1552 12.4183 29.087 12.6263C29.0189 12.8343 28.8877 13.016 28.7118 13.1462L26.9689 14.4342C26.4718 14.7999 26.1712 15.3816 26.1712 15.9999C26.1712 16.6171 26.4718 17.1988 26.97 17.5656L28.714 18.8525C29.0752 19.1199 29.2283 19.5862 29.0958 20.0148C28.4804 22.0034 27.4227 23.8269 26.002 25.3485C25.8534 25.508 25.6588 25.6173 25.4452 25.6614C25.2317 25.7054 25.0108 25.6819 24.8112 25.5942ZM18.586 25.3679C18.8588 24.5139 19.4392 23.7917 20.2146 23.3416C20.7134 23.0542 21.2728 22.8878 21.8476 22.8559C22.4224 22.8239 22.9967 22.9273 23.5243 23.1576L25.0603 23.8319C26.047 22.6896 26.8106 21.3723 27.3118 19.9485L25.9529 18.9462C25.4903 18.6065 25.1139 18.1618 24.854 17.6501C24.5942 17.1383 24.4582 16.5727 24.4569 15.9988C24.4569 14.8251 25.0249 13.7359 25.9506 13.0548L25.9529 13.0536L27.3095 12.0514C26.808 10.6278 26.0439 9.31093 25.0569 8.16907L23.5335 8.83879L23.5312 8.83993C23.0672 9.04564 22.5678 9.15079 22.0615 9.15079C21.1611 9.14943 20.2929 8.81622 19.6228 8.21489C18.9528 7.61355 18.5279 6.7863 18.4295 5.89136V5.88907L18.2432 4.2205C17.508 4.08358 16.7624 4.00978 16.0146 3.99993C15.2574 4.00946 14.5023 4.08325 13.7575 4.2205L13.5712 5.89022C13.5071 6.46 13.3103 7.00681 12.9965 7.48669C12.6826 7.96656 12.2606 8.36612 11.7643 8.65324C11.268 8.94035 10.7112 9.10702 10.1388 9.13984C9.56636 9.17266 8.99421 9.07072 8.46833 8.84222L6.94147 8.17022C5.95442 9.31204 5.19034 10.6289 4.6889 12.0525L6.0489 13.0548C6.51056 13.3948 6.88585 13.8385 7.1445 14.3502C7.40314 14.8619 7.5379 15.4272 7.5379 16.0005C7.5379 16.5738 7.40314 17.1391 7.1445 17.6508C6.88585 18.1625 6.51056 18.6062 6.0489 18.9462L4.6889 19.9496C5.1894 21.3755 5.9531 22.6947 6.94033 23.8388L8.47748 23.1645C9.00168 22.935 9.5725 22.832 10.1438 22.8638C10.7152 22.8956 11.2711 23.0612 11.7666 23.3474C12.262 23.6335 12.6833 24.0319 12.9967 24.5104C13.3101 24.989 13.5069 25.5344 13.5712 26.1028V26.1085L13.7563 27.7816C15.2386 28.0731 16.762 28.0731 18.2443 27.7816L18.4295 26.1051C18.4569 25.8536 18.5083 25.6056 18.586 25.3679Z" fill="#808080"/>
</svg>
