<svg width="32" height="32" viewBox="0 0 32 32" fill="none" xmlns="http://www.w3.org/2000/svg">
<g id="Icon/24/Statistical">
<g id="Group">
<path id="Vector" d="M2.5 15.8501C2.57521 15.3099 2.61624 14.7697 2.72564 14.2364C3.73077 9.39537 6.32222 5.85349 11.0402 4.04153C12.1479 3.61759 13.3171 3.44665 14.5068 3.41247C15.088 3.39879 15.3205 3.61759 15.3205 4.19879C15.3205 8.21247 15.3205 12.2193 15.3137 16.233C15.3137 16.5065 15.3821 16.7116 15.553 16.9236C18.1239 20.2125 20.6812 23.5082 23.2453 26.7971C23.5803 27.2278 23.5393 27.515 23.1017 27.8569C22.2197 28.5543 21.2966 29.1697 20.2368 29.5595C19.3342 29.8945 18.4043 30.0586 17.447 30.1407C17.3376 30.1475 17.235 30.1749 17.1325 30.1954C16.4214 30.1954 15.7103 30.1954 15.006 30.1954C14.6641 30.1543 14.3222 30.1133 13.9872 30.0655C11.594 29.7031 9.43333 28.7937 7.55299 27.2689C4.96154 25.1697 3.34103 22.4825 2.72564 19.2005C2.62991 18.7014 2.57521 18.2022 2.50684 17.6962C2.5 17.0877 2.5 16.4655 2.5 15.8501ZM14.1376 4.59537C13.7615 4.6364 13.4265 4.65691 13.0983 4.71845C10.5205 5.16973 8.40086 6.44153 6.71197 8.41076C5.14615 10.2296 4.2094 12.3492 3.84017 14.7219C3.59402 16.3287 3.58034 17.9355 3.97009 19.515C4.97521 23.6039 7.42992 26.4825 11.3 28.1372C13.1735 28.9373 15.1427 29.1287 17.1462 28.9988C18.0761 28.9373 18.9855 28.7937 19.8607 28.4586C20.6538 28.1509 21.3718 27.7202 22.0419 27.1937C21.9803 27.1116 21.9325 27.0432 21.8846 26.9817C19.3957 23.7817 16.9068 20.5817 14.4111 17.3817C14.206 17.1219 14.1239 16.8552 14.1239 16.5338C14.1308 12.6774 14.1308 8.82101 14.1308 4.9646C14.1376 4.84836 14.1376 4.73896 14.1376 4.59537Z" fill="#999999" stroke="#999999" stroke-width="0.11875" stroke-miterlimit="10"/>
<path id="Vector_2" d="M23.4646 16.2261C21.3928 16.2261 19.3142 16.2261 17.2424 16.2261C16.668 16.2261 16.4766 16.0346 16.4766 15.4534C16.4766 11.303 16.4766 7.1594 16.4766 3.00897C16.4766 2.44829 16.6749 2.25 17.2287 2.25C23.0885 2.28419 28.3603 6.33205 29.9535 12.0141C30.2749 13.156 30.4458 14.3184 30.4526 15.5081C30.4526 16.0073 30.2407 16.2261 29.7415 16.2261C27.6492 16.2261 25.5569 16.2261 23.4646 16.2261ZM17.6595 15.0363C21.5364 15.0363 25.386 15.0363 29.2355 15.0363C29.0441 8.67735 23.5125 3.56282 17.6595 3.47393C17.6595 7.3235 17.6595 11.1662 17.6595 15.0363Z" fill="#999999" stroke="#999999" stroke-width="0.11875" stroke-miterlimit="10"/>
<path id="Vector_3" d="M24.0387 17.3817C25.8849 17.3817 27.731 17.3817 29.5772 17.3817C30.2746 17.3817 30.466 17.5594 30.4455 18.2432C30.3293 21.9628 28.9276 25.115 26.2541 27.7064C25.919 28.0346 25.5703 28.0005 25.2558 27.6107C23.7378 25.7372 22.2267 23.8637 20.7088 21.9902C19.7584 20.8141 18.8148 19.6381 17.8643 18.4688C17.6797 18.2432 17.5566 18.0107 17.7002 17.7235C17.8438 17.4432 18.0968 17.3817 18.3908 17.3817C20.2712 17.3885 22.1515 17.3817 24.0387 17.3817ZM25.8438 26.4757C27.9361 24.2398 29.0712 21.6278 29.2626 18.5851C25.9874 18.5851 22.7532 18.5851 19.4712 18.5851C21.6045 21.2312 23.7173 23.8432 25.8438 26.4757Z" fill="#999999" stroke="#999999" stroke-width="0.11875" stroke-miterlimit="10"/>
</g>
</g>
</svg>
