<svg width="32" height="32" viewBox="0 0 32 32" fill="none" xmlns="http://www.w3.org/2000/svg">
<g id="Icon/24/Patient">
<g id="Group">
<g id="Group 1000001662">
<path id="Vector" d="M10 24V28.0373" stroke="#999999" stroke-width="1.1875" stroke-miterlimit="10" stroke-linejoin="round"/>
<path id="Vector_2" d="M12 26.022H8" stroke="#999999" stroke-width="1.1875" stroke-miterlimit="10" stroke-linejoin="round"/>
</g>
<g id="Group_2">
<path id="Vector_3" d="M10.1722 10.6166C10.16 10.022 10.1232 8.65517 10.0925 8.18933C10.0925 6.58341 10.5032 3.32867 13.5128 3.31641C14.469 3.31641 14.2054 2.66669 16.0504 2.66669C21.7017 2.66669 22.1676 6.40566 22.1676 8.1832C22.1124 8.61839 22.1001 9.973 22.094 10.6166" stroke="#999999" stroke-width="1.1875" stroke-miterlimit="10" stroke-linejoin="round"/>
<g id="Group_3">
<path id="Vector_4" d="M16.1298 18.1868C16.4424 18.1868 16.6202 18.1684 16.8654 18.1316C16.9328 18.1193 16.9757 18.1132 16.9757 18.1132C17.5151 18.0335 17.9625 17.9661 18.41 17.629C18.649 17.4451 18.8881 17.2428 19.1271 17.0222C19.8014 16.3908 20.4143 15.6492 20.7514 15.0117L21.205 13.7736C21.2479 13.651 21.3215 13.5468 21.4196 13.4548C22.2777 12.6764 22.8416 10.9234 21.8915 10.4759C21.8915 10.4759 21.4992 10.6843 21.1928 10.2491C21.0273 10.0101 20.825 9.67295 20.7269 9.19485C20.7024 9.09678 20.6105 9.02936 20.5063 9.04162C16.8776 9.58101 14.0765 7.72991 13.1754 7.02502C13.1019 6.96373 12.9977 6.94534 12.9057 6.96986C12.8138 6.99438 12.7096 7.04954 12.6973 7.14761C12.6176 7.57667 12.5073 7.98735 12.3725 8.36737C12.0476 9.28066 11.6615 9.90587 11.0975 10.4943C10.7911 10.8192 10.3927 10.4698 10.3927 10.4698C9.43646 10.9111 10.0004 12.6703 10.8646 13.4487C10.9627 13.5345 11.0362 13.6448 11.0792 13.7674L11.5327 15.0056C11.8699 15.643 12.4828 16.3847 13.157 17.016C13.39 17.2367 13.6351 17.439 13.8742 17.6229C14.3216 17.96 14.7691 18.0274 15.3085 18.1071C15.3085 18.1071 15.3514 18.1132 15.4188 18.1255C15.6395 18.1684 15.8172 18.1868 16.1298 18.1868Z" stroke="#999999" stroke-width="1.1875" stroke-miterlimit="10" stroke-linejoin="round"/>
<path id="Vector_5" d="M13.139 17.0221C13.09 17.9047 12.9858 18.9406 12.8203 19.6149L6.36597 22.2505C5.7469 22.5263 5.27493 23.0474 5.0604 23.6909C4.71715 24.7268 4.25131 27.2276 4 30.1146H28.3156C28.0643 27.2338 27.5984 24.7391 27.2613 23.7032C27.0468 23.0535 26.5687 22.5263 25.9435 22.2567L19.3972 19.6149C19.2317 18.9467 19.1643 17.9047 19.1152 17.0221" stroke="#999999" stroke-width="1.1875" stroke-miterlimit="10" stroke-linejoin="round"/>
</g>
</g>
<path id="Vector_6" d="M12.7283 19.6517C15.3762 21.1351 16.8963 21.0983 19.581 19.6517" stroke="#999999" stroke-width="1.1875" stroke-miterlimit="10" stroke-linejoin="round"/>
</g>
</g>
</svg>
