<?xml version="1.0" standalone="no"?>
<!DOCTYPE svg PUBLIC "-//W3C//DTD SVG 20010904//EN"
 "http://www.w3.org/TR/2001/REC-SVG-20010904/DTD/svg10.dtd">
<svg version="1.0" xmlns="http://www.w3.org/2000/svg"
 width="700.000000pt" height="700.000000pt" viewBox="0 0 700.000000 700.000000"
 preserveAspectRatio="xMidYMid meet">
<metadata>
Created by potrace 1.14, written by Peter Selinger 2001-2017
</metadata>
<g transform="translate(0.000000,700.000000) scale(0.100000,-0.100000)"
fill="#000000" stroke="none">
<path d="M880 6994 c-66 -10 -148 -28 -180 -40 -57 -20 -75 -25 -75 -23 0 9
-170 -91 -227 -133 -187 -137 -326 -359 -377 -598 -19 -93 -20 -142 -20 -2700
0 -2238 2 -2615 14 -2675 47 -223 129 -380 280 -530 151 -151 315 -237 530
-279 71 -13 382 -15 2663 -16 1793 0 2605 3 2655 11 151 22 321 90 442 177 63
45 192 175 232 233 48 70 101 175 127 253 59 174 55 -1 55 2831 0 2547 0 2602
-19 2690 -36 165 -90 284 -187 412 -123 163 -304 290 -496 348 -148 45 -52 44
-2797 43 -1427 0 -2606 -2 -2620 -4z"/>
</g>
</svg>
