<svg width="132" height="132" viewBox="0 0 132 132" fill="none" xmlns="http://www.w3.org/2000/svg">
    <circle cx="66" cy="66" r="66" fill="#E5E5E5"/>
    <path d="M80.4989 92.4983H51.4963C49.7281 92.4983 48.0325 91.7959 46.7822 90.5457C45.532 89.2955 44.8296 87.5998 44.8296 85.8316V83.6263C44.8296 73.0423 54.3256 64.4263 65.9976 64.4263C77.6696 64.4263 87.1656 73.037 87.1656 83.6263V85.8316C87.1656 87.5998 86.4632 89.2955 85.213 90.5457C83.9627 91.7959 82.267 92.4983 80.4989 92.4983ZM65.9976 67.0983C55.7949 67.0983 47.4963 74.5117 47.4963 83.6316V85.837C47.4963 86.8978 47.9177 87.9153 48.6678 88.6654C49.418 89.4156 50.4354 89.837 51.4963 89.837H80.4989C81.5598 89.837 82.5772 89.4156 83.3274 88.6654C84.0775 87.9153 84.4989 86.8978 84.4989 85.837V83.6263C84.4989 74.5117 76.2003 67.0983 65.9976 67.0983ZM65.9976 60.429C63.9279 60.4295 61.9045 59.8163 60.1834 58.6668C58.4622 57.5173 57.1206 55.8832 56.3282 53.9712C55.5358 52.0592 55.3282 49.9552 55.7317 47.9252C56.1351 45.8952 57.1315 44.0304 58.5948 42.5668C60.0581 41.1031 61.9226 40.1062 63.9525 39.7022C65.9824 39.2983 68.0865 39.5053 69.9987 40.2973C71.9109 41.0892 73.5453 42.4304 74.6952 44.1512C75.8452 45.8721 76.4589 47.8953 76.4589 49.965C76.4568 52.7391 75.354 55.399 73.3927 57.3609C71.4313 59.3227 68.7717 60.4262 65.9976 60.429ZM65.9976 42.1703C64.4552 42.1698 62.9473 42.6267 61.6646 43.4833C60.3819 44.3399 59.3821 45.5576 58.7916 46.9825C58.2011 48.4074 58.0465 49.9754 58.3473 51.4882C58.6481 53.001 59.3907 54.3906 60.4814 55.4812C61.572 56.5718 62.9616 57.3145 64.4744 57.6153C65.9872 57.9161 67.5552 57.7614 68.9801 57.1709C70.405 56.5804 71.6227 55.5806 72.4793 54.298C73.3359 53.0153 73.7928 51.5074 73.7923 49.965C73.7901 47.8984 72.9682 45.917 71.5069 44.4557C70.0456 42.9943 68.0642 42.1724 65.9976 42.1703Z" fill="#CCCCCC"/>
</svg>
